<!-- <svg width="45" height="45" viewBox="0 0 45 45" fill="none" xmlns="http://www.w3.org/2000/svg">
<rect width="45" height="45" rx="4" fill="black"/>
<path d="M5.13 31V10H19.17V13.21H8.58V18.67H18.24V21.91H8.58V27.79H19.5V31H5.13ZM31.8881 31.45C30.0881 31.45 28.4281 31.06 26.9081 30.28C25.4081 29.48 24.2181 28.13 23.3381 26.23L26.6081 24.43C27.1881 25.47 27.8881 26.28 28.7081 26.86C29.5281 27.44 30.6381 27.73 32.0381 27.73C33.4181 27.73 34.3381 27.5 34.7981 27.04C35.2581 26.56 35.4881 25.93 35.4881 25.15C35.4881 24.65 35.3681 24.22 35.1281 23.86C34.9081 23.5 34.4081 23.16 33.6281 22.84C32.8681 22.5 31.6881 22.14 30.0881 21.76C28.1481 21.3 26.7181 20.56 25.7981 19.54C24.8781 18.52 24.4181 17.25 24.4181 15.73C24.4181 14.47 24.7181 13.37 25.3181 12.43C25.9181 11.49 26.7581 10.76 27.8381 10.24C28.9381 9.7 30.2281 9.43 31.7081 9.43C33.0681 9.43 34.2681 9.64 35.3081 10.06C36.3481 10.48 37.2281 11.03 37.9481 11.71C38.6881 12.39 39.2681 13.13 39.6881 13.93L36.5981 16.24C36.2981 15.76 35.9281 15.29 35.4881 14.83C35.0681 14.35 34.5481 13.95 33.9281 13.63C33.3081 13.31 32.5481 13.15 31.6481 13.15C30.7081 13.15 29.9381 13.35 29.3381 13.75C28.7581 14.13 28.4681 14.73 28.4681 15.55C28.4681 15.87 28.5481 16.2 28.7081 16.54C28.8881 16.86 29.2881 17.18 29.9081 17.5C30.5481 17.82 31.5581 18.15 32.9381 18.49C35.2781 19.05 36.9681 19.89 38.0081 21.01C39.0681 22.11 39.5981 23.47 39.5981 25.09C39.5981 27.15 38.8981 28.73 37.4981 29.83C36.1181 30.91 34.2481 31.45 31.8881 31.45Z" fill="#58E6FF" fill-opacity="0.8"/>
<path d="M7.13 33V12H21.17V15.21H10.58V20.67H20.24V23.91H10.58V29.79H21.5V33H7.13ZM33.8881 33.45C32.0881 33.45 30.4281 33.06 28.9081 32.28C27.4081 31.48 26.2181 30.13 25.3381 28.23L28.6081 26.43C29.1881 27.47 29.8881 28.28 30.7081 28.86C31.5281 29.44 32.6381 29.73 34.0381 29.73C35.4181 29.73 36.3381 29.5 36.7981 29.04C37.2581 28.56 37.4881 27.93 37.4881 27.15C37.4881 26.65 37.3681 26.22 37.1281 25.86C36.9081 25.5 36.4081 25.16 35.6281 24.84C34.8681 24.5 33.6881 24.14 32.0881 23.76C30.1481 23.3 28.7181 22.56 27.7981 21.54C26.8781 20.52 26.4181 19.25 26.4181 17.73C26.4181 16.47 26.7181 15.37 27.3181 14.43C27.9181 13.49 28.7581 12.76 29.8381 12.24C30.9381 11.7 32.2281 11.43 33.7081 11.43C35.0681 11.43 36.2681 11.64 37.3081 12.06C38.3481 12.48 39.2281 13.03 39.9481 13.71C40.6881 14.39 41.2681 15.13 41.6881 15.93L38.5981 18.24C38.2981 17.76 37.9281 17.29 37.4881 16.83C37.0681 16.35 36.5481 15.95 35.9281 15.63C35.3081 15.31 34.5481 15.15 33.6481 15.15C32.7081 15.15 31.9381 15.35 31.3381 15.75C30.7581 16.13 30.4681 16.73 30.4681 17.55C30.4681 17.87 30.5481 18.2 30.7081 18.54C30.8881 18.86 31.2881 19.18 31.9081 19.5C32.5481 19.82 33.5581 20.15 34.9381 20.49C37.2781 21.05 38.9681 21.89 40.0081 23.01C41.0681 24.11 41.5981 25.47 41.5981 27.09C41.5981 29.15 40.8981 30.73 39.4981 31.83C38.1181 32.91 36.2481 33.45 33.8881 33.45Z" fill="#FF59B7" fill-opacity="0.8"/>
<path d="M6.13 32V11H20.17V14.21H9.58V19.67H19.24V22.91H9.58V28.79H20.5V32H6.13ZM32.8881 32.45C31.0881 32.45 29.4281 32.06 27.9081 31.28C26.4081 30.48 25.2181 29.13 24.3381 27.23L27.6081 25.43C28.1881 26.47 28.8881 27.28 29.7081 27.86C30.5281 28.44 31.6381 28.73 33.0381 28.73C34.4181 28.73 35.3381 28.5 35.7981 28.04C36.2581 27.56 36.4881 26.93 36.4881 26.15C36.4881 25.65 36.3681 25.22 36.1281 24.86C35.9081 24.5 35.4081 24.16 34.6281 23.84C33.8681 23.5 32.6881 23.14 31.0881 22.76C29.1481 22.3 27.7181 21.56 26.7981 20.54C25.8781 19.52 25.4181 18.25 25.4181 16.73C25.4181 15.47 25.7181 14.37 26.3181 13.43C26.9181 12.49 27.7581 11.76 28.8381 11.24C29.9381 10.7 31.2281 10.43 32.7081 10.43C34.0681 10.43 35.2681 10.64 36.3081 11.06C37.3481 11.48 38.2281 12.03 38.9481 12.71C39.6881 13.39 40.2681 14.13 40.6881 14.93L37.5981 17.24C37.2981 16.76 36.9281 16.29 36.4881 15.83C36.0681 15.35 35.5481 14.95 34.9281 14.63C34.3081 14.31 33.5481 14.15 32.6481 14.15C31.7081 14.15 30.9381 14.35 30.3381 14.75C29.7581 15.13 29.4681 15.73 29.4681 16.55C29.4681 16.87 29.5481 17.2 29.7081 17.54C29.8881 17.86 30.2881 18.18 30.9081 18.5C31.5481 18.82 32.5581 19.15 33.9381 19.49C36.2781 20.05 37.9681 20.89 39.0081 22.01C40.0681 23.11 40.5981 24.47 40.5981 26.09C40.5981 28.15 39.8981 29.73 38.4981 30.83C37.1181 31.91 35.2481 32.45 32.8881 32.45Z" fill="white" fill-opacity="0.8"/>
</svg> -->

<svg width="45" height="45" viewBox="0 0 45 45" fill="none" xmlns="http://www.w3.org/2000/svg">
<rect width="45" height="45" rx="4" fill="black"/>
<path d="M5.13 30V9H19.17V12.21H8.58V17.67H18.24V20.91H8.58V26.79H19.5V30H5.13ZM31.8881 30.45C30.0881 30.45 28.4281 30.06 26.9081 29.28C25.4081 28.48 24.2181 27.13 23.3381 25.23L26.6081 23.43C27.1881 24.47 27.8881 25.28 28.7081 25.86C29.5281 26.44 30.6381 26.73 32.0381 26.73C33.4181 26.73 34.3381 26.5 34.7981 26.04C35.2581 25.56 35.4881 24.93 35.4881 24.15C35.4881 23.65 35.3681 23.22 35.1281 22.86C34.9081 22.5 34.4081 22.16 33.6281 21.84C32.8681 21.5 31.6881 21.14 30.0881 20.76C28.1481 20.3 26.7181 19.56 25.7981 18.54C24.8781 17.52 24.4181 16.25 24.4181 14.73C24.4181 13.47 24.7181 12.37 25.3181 11.43C25.9181 10.49 26.7581 9.76 27.8381 9.24C28.9381 8.7 30.2281 8.43 31.7081 8.43C33.0681 8.43 34.2681 8.64 35.3081 9.06C36.3481 9.48 37.2281 10.03 37.9481 10.71C38.6881 11.39 39.2681 12.13 39.6881 12.93L36.5981 15.24C36.2981 14.76 35.9281 14.29 35.4881 13.83C35.0681 13.35 34.5481 12.95 33.9281 12.63C33.3081 12.31 32.5481 12.15 31.6481 12.15C30.7081 12.15 29.9381 12.35 29.3381 12.75C28.7581 13.13 28.4681 13.73 28.4681 14.55C28.4681 14.87 28.5481 15.2 28.7081 15.54C28.8881 15.86 29.2881 16.18 29.9081 16.5C30.5481 16.82 31.5581 17.15 32.9381 17.49C35.2781 18.05 36.9681 18.89 38.0081 20.01C39.0681 21.11 39.5981 22.47 39.5981 24.09C39.5981 26.15 38.8981 27.73 37.4981 28.83C36.1181 29.91 34.2481 30.45 31.8881 30.45Z" fill="#58E6FF" fill-opacity="0.8"/>
<path d="M7.13 34V13H21.17V16.21H10.58V21.67H20.24V24.91H10.58V30.79H21.5V34H7.13ZM33.8881 34.45C32.0881 34.45 30.4281 34.06 28.9081 33.28C27.4081 32.48 26.2181 31.13 25.3381 29.23L28.6081 27.43C29.1881 28.47 29.8881 29.28 30.7081 29.86C31.5281 30.44 32.6381 30.73 34.0381 30.73C35.4181 30.73 36.3381 30.5 36.7981 30.04C37.2581 29.56 37.4881 28.93 37.4881 28.15C37.4881 27.65 37.3681 27.22 37.1281 26.86C36.9081 26.5 36.4081 26.16 35.6281 25.84C34.8681 25.5 33.6881 25.14 32.0881 24.76C30.1481 24.3 28.7181 23.56 27.7981 22.54C26.8781 21.52 26.4181 20.25 26.4181 18.73C26.4181 17.47 26.7181 16.37 27.3181 15.43C27.9181 14.49 28.7581 13.76 29.8381 13.24C30.9381 12.7 32.2281 12.43 33.7081 12.43C35.0681 12.43 36.2681 12.64 37.3081 13.06C38.3481 13.48 39.2281 14.03 39.9481 14.71C40.6881 15.39 41.2681 16.13 41.6881 16.93L38.5981 19.24C38.2981 18.76 37.9281 18.29 37.4881 17.83C37.0681 17.35 36.5481 16.95 35.9281 16.63C35.3081 16.31 34.5481 16.15 33.6481 16.15C32.7081 16.15 31.9381 16.35 31.3381 16.75C30.7581 17.13 30.4681 17.73 30.4681 18.55C30.4681 18.87 30.5481 19.2 30.7081 19.54C30.8881 19.86 31.2881 20.18 31.9081 20.5C32.5481 20.82 33.5581 21.15 34.9381 21.49C37.2781 22.05 38.9681 22.89 40.0081 24.01C41.0681 25.11 41.5981 26.47 41.5981 28.09C41.5981 30.15 40.8981 31.73 39.4981 32.83C38.1181 33.91 36.2481 34.45 33.8881 34.45Z" fill="#FF59B7" fill-opacity="0.8"/>
<path d="M6.13 32V11H20.17V14.21H9.58V19.67H19.24V22.91H9.58V28.79H20.5V32H6.13ZM32.8881 32.45C31.0881 32.45 29.4281 32.06 27.9081 31.28C26.4081 30.48 25.2181 29.13 24.3381 27.23L27.6081 25.43C28.1881 26.47 28.8881 27.28 29.7081 27.86C30.5281 28.44 31.6381 28.73 33.0381 28.73C34.4181 28.73 35.3381 28.5 35.7981 28.04C36.2581 27.56 36.4881 26.93 36.4881 26.15C36.4881 25.65 36.3681 25.22 36.1281 24.86C35.9081 24.5 35.4081 24.16 34.6281 23.84C33.8681 23.5 32.6881 23.14 31.0881 22.76C29.1481 22.3 27.7181 21.56 26.7981 20.54C25.8781 19.52 25.4181 18.25 25.4181 16.73C25.4181 15.47 25.7181 14.37 26.3181 13.43C26.9181 12.49 27.7581 11.76 28.8381 11.24C29.9381 10.7 31.2281 10.43 32.7081 10.43C34.0681 10.43 35.2681 10.64 36.3081 11.06C37.3481 11.48 38.2281 12.03 38.9481 12.71C39.6881 13.39 40.2681 14.13 40.6881 14.93L37.5981 17.24C37.2981 16.76 36.9281 16.29 36.4881 15.83C36.0681 15.35 35.5481 14.95 34.9281 14.63C34.3081 14.31 33.5481 14.15 32.6481 14.15C31.7081 14.15 30.9381 14.35 30.3381 14.75C29.7581 15.13 29.4681 15.73 29.4681 16.55C29.4681 16.87 29.5481 17.2 29.7081 17.54C29.8881 17.86 30.2881 18.18 30.9081 18.5C31.5481 18.82 32.5581 19.15 33.9381 19.49C36.2781 20.05 37.9681 20.89 39.0081 22.01C40.0681 23.11 40.5981 24.47 40.5981 26.09C40.5981 28.15 39.8981 29.73 38.4981 30.83C37.1181 31.91 35.2481 32.45 32.8881 32.45Z" fill="white" fill-opacity="0.9"/>
</svg>

