<svg id="visual" viewBox="0 0 600 900" width="600" height="900" xmlns="http://www.w3.org/2000/svg" xmlns:xlink="http://www.w3.org/1999/xlink" version="1.1"><rect x="0" y="0" width="600" height="900" fill="#FFFFFF"></rect><path d="M346 900L349.5 883.3C353 866.7 360 833.3 355 800C350 766.7 333 733.3 323 700C313 666.7 310 633.3 315 600C320 566.7 333 533.3 345.7 500C358.3 466.7 370.7 433.3 374.2 400C377.7 366.7 372.3 333.3 375.3 300C378.3 266.7 389.7 233.3 379.2 200C368.7 166.7 336.3 133.3 323.7 100C311 66.7 318 33.3 321.5 16.7L325 0L600 0L600 16.7C600 33.3 600 66.7 600 100C600 133.3 600 166.7 600 200C600 233.3 600 266.7 600 300C600 333.3 600 366.7 600 400C600 433.3 600 466.7 600 500C600 533.3 600 566.7 600 600C600 633.3 600 666.7 600 700C600 733.3 600 766.7 600 800C600 833.3 600 866.7 600 883.3L600 900Z" fill="#ec325a"></path><path d="M425 900L426.7 883.3C428.3 866.7 431.7 833.3 419.3 800C407 766.7 379 733.3 378.7 700C378.3 666.7 405.7 633.3 420.7 600C435.7 566.7 438.3 533.3 439.7 500C441 466.7 441 433.3 433.3 400C425.7 366.7 410.3 333.3 402 300C393.7 266.7 392.3 233.3 386 200C379.7 166.7 368.3 133.3 375.2 100C382 66.7 407 33.3 419.5 16.7L432 0L600 0L600 16.7C600 33.3 600 66.7 600 100C600 133.3 600 166.7 600 200C600 233.3 600 266.7 600 300C600 333.3 600 366.7 600 400C600 433.3 600 466.7 600 500C600 533.3 600 566.7 600 600C600 633.3 600 666.7 600 700C600 733.3 600 766.7 600 800C600 833.3 600 866.7 600 883.3L600 900Z" fill="#d02660"></path><path d="M437 900L435.8 883.3C434.7 866.7 432.3 833.3 430.2 800C428 766.7 426 733.3 431.8 700C437.7 666.7 451.3 633.3 455.8 600C460.3 566.7 455.7 533.3 446 500C436.3 466.7 421.7 433.3 423.7 400C425.7 366.7 444.3 333.3 449.8 300C455.3 266.7 447.7 233.3 448.2 200C448.7 166.7 457.3 133.3 453.8 100C450.3 66.7 434.7 33.3 426.8 16.7L419 0L600 0L600 16.7C600 33.3 600 66.7 600 100C600 133.3 600 166.7 600 200C600 233.3 600 266.7 600 300C600 333.3 600 366.7 600 400C600 433.3 600 466.7 600 500C600 533.3 600 566.7 600 600C600 633.3 600 666.7 600 700C600 733.3 600 766.7 600 800C600 833.3 600 866.7 600 883.3L600 900Z" fill="#b12062"></path><path d="M507 900L504.5 883.3C502 866.7 497 833.3 490.3 800C483.7 766.7 475.3 733.3 479.2 700C483 666.7 499 633.3 505.3 600C511.7 566.7 508.3 533.3 499.2 500C490 466.7 475 433.3 474.2 400C473.3 366.7 486.7 333.3 487.7 300C488.7 266.7 477.3 233.3 472.7 200C468 166.7 470 133.3 470.5 100C471 66.7 470 33.3 469.5 16.7L469 0L600 0L600 16.7C600 33.3 600 66.7 600 100C600 133.3 600 166.7 600 200C600 233.3 600 266.7 600 300C600 333.3 600 366.7 600 400C600 433.3 600 466.7 600 500C600 533.3 600 566.7 600 600C600 633.3 600 666.7 600 700C600 733.3 600 766.7 600 800C600 833.3 600 866.7 600 883.3L600 900Z" fill="#911e60"></path><path d="M565 900L561.8 883.3C558.7 866.7 552.3 833.3 552.8 800C553.3 766.7 560.7 733.3 559.8 700C559 666.7 550 633.3 543.8 600C537.7 566.7 534.3 533.3 534.5 500C534.7 466.7 538.3 433.3 541.2 400C544 366.7 546 333.3 548.2 300C550.3 266.7 552.7 233.3 551.3 200C550 166.7 545 133.3 540.8 100C536.7 66.7 533.3 33.3 531.7 16.7L530 0L600 0L600 16.7C600 33.3 600 66.7 600 100C600 133.3 600 166.7 600 200C600 233.3 600 266.7 600 300C600 333.3 600 366.7 600 400C600 433.3 600 466.7 600 500C600 533.3 600 566.7 600 600C600 633.3 600 666.7 600 700C600 733.3 600 766.7 600 800C600 833.3 600 866.7 600 883.3L600 900Z" fill="#721d59"></path></svg>